<svg xmlns="http://www.w3.org/2000/svg" version="1.1" xmlns:xlink="http://www.w3.org/1999/xlink" xmlns:svgjs="http://svgjs.dev/svgjs" width="1500" height="1500" viewBox="0 0 1500 1500"><rect width="1500" height="1500" fill="#191552"></rect><g transform="matrix(0.2554278416347382,0,0,0.2554278416347382,556.8312411387187,248.38709677419342)"><svg viewBox="0 0 95 248" data-background-color="#191552" preserveAspectRatio="xMidYMid meet" height="3915" width="1500" xmlns="http://www.w3.org/2000/svg" xmlns:xlink="http://www.w3.org/1999/xlink"><g id="tight-bounds" transform="matrix(1,0,0,1,0.39619375965469317,0.4000000000000057)"><svg viewBox="0 0 94.20761248069064 247.2" height="247.2" width="94.20761248069064"><g><svg viewBox="0 0 196.01915492957747 514.3526496706768" height="247.2" width="94.20761248069064"><g transform="matrix(1,0,0,1,0,267.15264967067674)"><svg viewBox="0 0 196.01915492957747 247.2" height="247.2" width="196.01915492957747"><g id="textblocktransform"><svg viewBox="0 0 196.01915492957747 247.2" height="247.2" width="196.01915492957747" id="textblock"><g><svg viewBox="0 0 196.01915492957747 247.2" height="247.2" width="196.01915492957747"><g transform="matrix(1,0,0,1,0,0)"><svg width="196.01915492957747" viewBox="1.6 -35.5 28.15 35.5" height="247.2" data-palette-color="url(#0f162f39-37a8-4bca-bc05-213f3c7fb4e4)"></svg></g></svg></g></svg></g></svg></g><g transform="matrix(1,0,0,1,37.439658591549296,0)"><svg viewBox="0 0 121.13983774647888 208.7946624706767" height="208.7946624706767" width="121.13983774647888"><g><svg xmlns="http://www.w3.org/2000/svg" xmlns:xlink="http://www.w3.org/1999/xlink" version="1.1" x="0" y="0" viewBox="21.679106830508616 1 56.85827385947762 98" enable-background="new 0 0 100 100" xml:space="preserve" height="208.7946624706767" width="121.13983774647888" class="icon-icon-0" data-fill-palette-color="accent" id="icon-0"></svg></g></svg></g><g></g></svg></g><defs></defs><mask id="00c6a043-04a6-4421-9c79-09b9be18cb9c"><g id="SvgjsG5135"><svg viewBox="0 0 94.20761248069064 247.2" height="247.2" width="94.20761248069064"><g><svg viewBox="0 0 196.01915492957747 514.3526496706768" height="247.2" width="94.20761248069064"><g transform="matrix(1,0,0,1,0,267.15264967067674)"><svg viewBox="0 0 196.01915492957747 247.2" height="247.2" width="196.01915492957747"><g id="SvgjsG5134"><svg viewBox="0 0 196.01915492957747 247.2" height="247.2" width="196.01915492957747" id="SvgjsSvg5133"><g><svg viewBox="0 0 196.01915492957747 247.2" height="247.2" width="196.01915492957747"><g transform="matrix(1,0,0,1,0,0)"><svg width="196.01915492957747" viewBox="1.6 -35.5 28.15 35.5" height="247.2" data-palette-color="url(#0f162f39-37a8-4bca-bc05-213f3c7fb4e4)"><path d="M1.6 0L1.6-3.5 24.5-31.5 2.05-31.5 2.05-35.5 29.75-35.5 29.75-32 7.25-4 29.75-4 29.75 0 1.6 0Z" opacity="1" transform="matrix(1,0,0,1,0,0)" fill="white" class="wordmark-text-0" id="SvgjsPath5132"></path></svg></g></svg></g></svg></g></svg></g><g transform="matrix(1,0,0,1,37.439658591549296,0)"><svg viewBox="0 0 121.13983774647888 208.7946624706767" height="208.7946624706767" width="121.13983774647888"><g><svg xmlns="http://www.w3.org/2000/svg" xmlns:xlink="http://www.w3.org/1999/xlink" version="1.1" x="0" y="0" viewBox="21.679106830508616 1 56.85827385947762 98" enable-background="new 0 0 100 100" xml:space="preserve" height="208.7946624706767" width="121.13983774647888" class="icon-icon-0" data-fill-palette-color="accent" id="SvgjsSvg5131"><g fill="black"><path fill-rule="evenodd" clip-rule="evenodd" d="M30.545 28.822C29.38 36.039 30.875 43.672 37.045 47.863 30.758 19.81 45.756 8.664 59.646 1 43.466 24.046 76.542 24.644 78.423 51.13 80.028 73.71 64.507 91.317 46.639 99 46.845 76.175 24.089 73.067 21.801 54.397 20.905 47.094 25.062 33.766 30.545 28.822" fill="black"></path></g></svg></g></svg></g><g></g></svg></g><defs><mask></mask></defs></svg><rect width="94.20761248069064" height="247.2" fill="black" stroke="none" visibility="hidden"></rect></g></mask><linearGradient x1="0" x2="1" y1="0.578" y2="0.595" id="0f162f39-37a8-4bca-bc05-213f3c7fb4e4"><stop stop-color="#6ee2f5" offset="0"></stop><stop stop-color="#6454f0" offset="1"></stop></linearGradient><rect width="94.20761248069064" height="247.2" fill="url(#0f162f39-37a8-4bca-bc05-213f3c7fb4e4)" mask="url(#00c6a043-04a6-4421-9c79-09b9be18cb9c)" data-fill-palette-color="primary"></rect><mask id="5c396063-84cf-4ed2-8bee-e9af1c3d7ebc"><g id="SvgjsG5144"><svg viewBox="0 0 94.20761248069064 247.2" height="247.2" width="94.20761248069064"><g><svg viewBox="0 0 196.01915492957747 514.3526496706768" height="247.2" width="94.20761248069064"><g transform="matrix(1,0,0,1,0,267.15264967067674)"><svg viewBox="0 0 196.01915492957747 247.2" height="247.2" width="196.01915492957747"><g id="SvgjsG5143"><svg viewBox="0 0 196.01915492957747 247.2" height="247.2" width="196.01915492957747" id="SvgjsSvg5142"><g><svg viewBox="0 0 196.01915492957747 247.2" height="247.2" width="196.01915492957747"><g transform="matrix(1,0,0,1,0,0)"><svg width="196.01915492957747" viewBox="1.6 -35.5 28.15 35.5" height="247.2" data-palette-color="url(#0f162f39-37a8-4bca-bc05-213f3c7fb4e4)"></svg></g></svg></g></svg></g></svg></g><g transform="matrix(1,0,0,1,37.439658591549296,0)"><svg viewBox="0 0 121.13983774647888 208.7946624706767" height="208.7946624706767" width="121.13983774647888"><g><svg xmlns="http://www.w3.org/2000/svg" xmlns:xlink="http://www.w3.org/1999/xlink" version="1.1" x="0" y="0" viewBox="21.679106830508616 1 56.85827385947762 98" enable-background="new 0 0 100 100" xml:space="preserve" height="208.7946624706767" width="121.13983774647888" class="icon-icon-0" data-fill-palette-color="accent" id="SvgjsSvg5141"><g fill="white"><path fill-rule="evenodd" clip-rule="evenodd" d="M30.545 28.822C29.38 36.039 30.875 43.672 37.045 47.863 30.758 19.81 45.756 8.664 59.646 1 43.466 24.046 76.542 24.644 78.423 51.13 80.028 73.71 64.507 91.317 46.639 99 46.845 76.175 24.089 73.067 21.801 54.397 20.905 47.094 25.062 33.766 30.545 28.822" fill="white"></path></g></svg></g></svg></g><g></g></svg></g><defs><mask></mask></defs><mask><g id="SvgjsG5140"><svg viewBox="0 0 94.20761248069064 247.2" height="247.2" width="94.20761248069064"><g><svg viewBox="0 0 196.01915492957747 514.3526496706768" height="247.2" width="94.20761248069064"><g transform="matrix(1,0,0,1,0,267.15264967067674)"><svg viewBox="0 0 196.01915492957747 247.2" height="247.2" width="196.01915492957747"><g id="SvgjsG5139"><svg viewBox="0 0 196.01915492957747 247.2" height="247.2" width="196.01915492957747" id="SvgjsSvg5138"><g><svg viewBox="0 0 196.01915492957747 247.2" height="247.2" width="196.01915492957747"><g transform="matrix(1,0,0,1,0,0)"><svg width="196.01915492957747" viewBox="1.6 -35.5 28.15 35.5" height="247.2" data-palette-color="url(#0f162f39-37a8-4bca-bc05-213f3c7fb4e4)"><path d="M1.6 0L1.6-3.5 24.5-31.5 2.05-31.5 2.05-35.5 29.75-35.5 29.75-32 7.25-4 29.75-4 29.75 0 1.6 0Z" opacity="1" transform="matrix(1,0,0,1,0,0)" fill="black" class="wordmark-text-0" id="SvgjsPath5137"></path></svg></g></svg></g></svg></g></svg></g><g transform="matrix(1,0,0,1,37.439658591549296,0)"><svg viewBox="0 0 121.13983774647888 208.7946624706767" height="208.7946624706767" width="121.13983774647888"><g><svg xmlns="http://www.w3.org/2000/svg" xmlns:xlink="http://www.w3.org/1999/xlink" version="1.1" x="0" y="0" viewBox="21.679106830508616 1 56.85827385947762 98" enable-background="new 0 0 100 100" xml:space="preserve" height="208.7946624706767" width="121.13983774647888" class="icon-icon-0" data-fill-palette-color="accent" id="SvgjsSvg5136"><g fill="black"><path fill-rule="evenodd" clip-rule="evenodd" d="M30.545 28.822C29.38 36.039 30.875 43.672 37.045 47.863 30.758 19.81 45.756 8.664 59.646 1 43.466 24.046 76.542 24.644 78.423 51.13 80.028 73.71 64.507 91.317 46.639 99 46.845 76.175 24.089 73.067 21.801 54.397 20.905 47.094 25.062 33.766 30.545 28.822" fill="black"></path></g></svg></g></svg></g><g></g></svg></g><defs><mask></mask></defs></svg><rect width="94.20761248069064" height="247.2" fill="black" stroke="none" visibility="hidden"></rect></g></mask></svg><rect width="94.20761248069064" height="247.2" fill="black" stroke="none" visibility="hidden"></rect></g></mask><linearGradient x1="0" x2="1" y1="0.578" y2="0.595" id="f0322869-325e-4c0b-8703-884519da7682"><stop stop-color="#6ee2f5" offset="0"></stop><stop stop-color="#6454f0" offset="1"></stop></linearGradient><rect width="94.20761248069064" height="247.2" fill="url(#f0322869-325e-4c0b-8703-884519da7682)" mask="url(#5c396063-84cf-4ed2-8bee-e9af1c3d7ebc)" data-fill-palette-color="accent"></rect></svg><rect width="94.20761248069064" height="247.2" fill="none" stroke="none" visibility="hidden"></rect></g></svg></g></svg>